<?xml version="1.0" encoding="UTF-8" standalone="no"?><svg xmlns="http://www.w3.org/2000/svg" xmlns:xlink="http://www.w3.org/1999/xlink" contentScriptType="application/ecmascript" contentStyleType="text/css" height="813px" preserveAspectRatio="none" style="width:546px;height:813px;" version="1.1" viewBox="0 0 546 813" width="546px" zoomAndPan="magnify"><defs><filter height="300%" id="fcjev63uogj9d" width="300%" x="-1" y="-1"><feGaussianBlur result="blurOut" stdDeviation="2.0"/><feColorMatrix in="blurOut" result="blurOut2" type="matrix" values="0 0 0 0 0 0 0 0 0 0 0 0 0 0 0 0 0 0 .4 0"/><feOffset dx="4.0" dy="4.0" in="blurOut2" result="blurOut3"/><feBlend in="SourceGraphic" in2="blurOut3" mode="normal"/></filter></defs><g><!--MD5=[1d6438b19b75334de94d74596f8416e5]
class Vehiculo--><rect fill="#FEFECE" filter="url(#fcjev63uogj9d)" height="107.9276" id="Vehiculo" style="stroke: #A80036; stroke-width: 1.5;" width="158" x="26.5" y="585"/><ellipse cx="78.75" cy="601" fill="#A9DCDF" rx="11" ry="11" style="stroke: #A80036; stroke-width: 1.0;"/><path d="M78.8594,596.3438 L77.7031,601.4219 L80.0313,601.4219 L78.8594,596.3438 Z M77.375,594.1094 L80.3594,594.1094 L83.7188,606.5 L81.2656,606.5 L80.5,603.4375 L77.2188,603.4375 L76.4688,606.5 L74.0313,606.5 L77.375,594.1094 Z "/><text fill="#000000" font-family="sans-serif" font-size="12" font-style="italic" lengthAdjust="spacingAndGlyphs" textLength="45" x="99.25" y="605.656">Vehiculo</text><line style="stroke: #A80036; stroke-width: 1.5;" x1="27.5" x2="183.5" y1="617" y2="617"/><polygon fill="none" points="37.5,623,41.5,627,37.5,631,33.5,627" style="stroke: #B38D22; stroke-width: 1.0;"/><text fill="#000000" font-family="sans-serif" font-size="11" lengthAdjust="spacingAndGlyphs" textLength="104" x="46.5" y="632.7589">disponible: boolean</text><line style="stroke: #A80036; stroke-width: 1.5;" x1="27.5" x2="183.5" y1="639.9819" y2="639.9819"/><ellipse cx="37.5" cy="650.9819" fill="#84BE84" rx="3" ry="3" style="stroke: #038048; stroke-width: 1.0;"/><text fill="#000000" font-family="sans-serif" font-size="11" lengthAdjust="spacingAndGlyphs" textLength="132" x="46.5" y="655.7408">estaDisponible(): boolean</text><ellipse cx="37.5" cy="665.9638" fill="#84BE84" rx="3" ry="3" style="stroke: #038048; stroke-width: 1.0;"/><text fill="#000000" font-family="sans-serif" font-size="11" lengthAdjust="spacingAndGlyphs" textLength="75" x="46.5" y="670.7227">alquilar(): void</text><ellipse cx="37.5" cy="680.9457" fill="#84BE84" rx="3" ry="3" style="stroke: #038048; stroke-width: 1.0;"/><text fill="#000000" font-family="sans-serif" font-size="11" lengthAdjust="spacingAndGlyphs" textLength="81" x="46.5" y="685.7046">devolver(): void</text><!--MD5=[572860b2a845a564b9eac3168aac5947]
class Bicicleta--><rect fill="#FEFECE" filter="url(#fcjev63uogj9d)" height="48" id="Bicicleta" style="stroke: #A80036; stroke-width: 1.5;" width="79" x="6" y="754"/><ellipse cx="21" cy="770" fill="#ADD1B2" rx="11" ry="11" style="stroke: #A80036; stroke-width: 1.0;"/><path d="M23.9688,775.6406 Q23.3906,775.9375 22.75,776.0781 Q22.1094,776.2344 21.4063,776.2344 Q18.9063,776.2344 17.5781,774.5938 Q16.2656,772.9375 16.2656,769.8125 Q16.2656,766.6875 17.5781,765.0313 Q18.9063,763.375 21.4063,763.375 Q22.1094,763.375 22.75,763.5313 Q23.4063,763.6875 23.9688,763.9844 L23.9688,766.7031 Q23.3438,766.125 22.75,765.8594 Q22.1563,765.5781 21.5313,765.5781 Q20.1875,765.5781 19.5,766.6563 Q18.8125,767.7188 18.8125,769.8125 Q18.8125,771.9063 19.5,772.9844 Q20.1875,774.0469 21.5313,774.0469 Q22.1563,774.0469 22.75,773.7813 Q23.3438,773.5 23.9688,772.9219 L23.9688,775.6406 Z "/><text fill="#000000" font-family="sans-serif" font-size="12" lengthAdjust="spacingAndGlyphs" textLength="47" x="35" y="774.656">Bicicleta</text><line style="stroke: #A80036; stroke-width: 1.5;" x1="7" x2="84" y1="786" y2="786"/><line style="stroke: #A80036; stroke-width: 1.5;" x1="7" x2="84" y1="794" y2="794"/><!--MD5=[9ca9535c3446951970d9daebb16c0d02]
class Monopatin--><rect fill="#FEFECE" filter="url(#fcjev63uogj9d)" height="48" id="Monopatin" style="stroke: #A80036; stroke-width: 1.5;" width="92" x="120.5" y="754"/><ellipse cx="135.5" cy="770" fill="#ADD1B2" rx="11" ry="11" style="stroke: #A80036; stroke-width: 1.0;"/><path d="M138.4688,775.6406 Q137.8906,775.9375 137.25,776.0781 Q136.6094,776.2344 135.9063,776.2344 Q133.4063,776.2344 132.0781,774.5938 Q130.7656,772.9375 130.7656,769.8125 Q130.7656,766.6875 132.0781,765.0313 Q133.4063,763.375 135.9063,763.375 Q136.6094,763.375 137.25,763.5313 Q137.9063,763.6875 138.4688,763.9844 L138.4688,766.7031 Q137.8438,766.125 137.25,765.8594 Q136.6563,765.5781 136.0313,765.5781 Q134.6875,765.5781 134,766.6563 Q133.3125,767.7188 133.3125,769.8125 Q133.3125,771.9063 134,772.9844 Q134.6875,774.0469 136.0313,774.0469 Q136.6563,774.0469 137.25,773.7813 Q137.8438,773.5 138.4688,772.9219 L138.4688,775.6406 Z "/><text fill="#000000" font-family="sans-serif" font-size="12" lengthAdjust="spacingAndGlyphs" textLength="60" x="149.5" y="774.656">Monopatin</text><line style="stroke: #A80036; stroke-width: 1.5;" x1="121.5" x2="211.5" y1="786" y2="786"/><line style="stroke: #A80036; stroke-width: 1.5;" x1="121.5" x2="211.5" y1="794" y2="794"/><!--MD5=[35a64b983c79880384a2fd9b61f0c24b]
class Usuario--><rect fill="#FEFECE" filter="url(#fcjev63uogj9d)" height="77.9638" id="Usuario" style="stroke: #A80036; stroke-width: 1.5;" width="247" x="160" y="245"/><ellipse cx="257.25" cy="261" fill="#ADD1B2" rx="11" ry="11" style="stroke: #A80036; stroke-width: 1.0;"/><path d="M260.2188,266.6406 Q259.6406,266.9375 259,267.0781 Q258.3594,267.2344 257.6563,267.2344 Q255.1563,267.2344 253.8281,265.5938 Q252.5156,263.9375 252.5156,260.8125 Q252.5156,257.6875 253.8281,256.0313 Q255.1563,254.375 257.6563,254.375 Q258.3594,254.375 259,254.5313 Q259.6563,254.6875 260.2188,254.9844 L260.2188,257.7031 Q259.5938,257.125 259,256.8594 Q258.4063,256.5781 257.7813,256.5781 Q256.4375,256.5781 255.75,257.6563 Q255.0625,258.7188 255.0625,260.8125 Q255.0625,262.9063 255.75,263.9844 Q256.4375,265.0469 257.7813,265.0469 Q258.4063,265.0469 259,264.7813 Q259.5938,264.5 260.2188,263.9219 L260.2188,266.6406 Z "/><text fill="#000000" font-family="sans-serif" font-size="12" lengthAdjust="spacingAndGlyphs" textLength="44" x="277.75" y="265.656">Usuario</text><line style="stroke: #A80036; stroke-width: 1.5;" x1="161" x2="406" y1="277" y2="277"/><line style="stroke: #A80036; stroke-width: 1.5;" x1="161" x2="406" y1="285" y2="285"/><ellipse cx="171" cy="296" fill="#84BE84" rx="3" ry="3" style="stroke: #038048; stroke-width: 1.0;"/><text fill="#000000" font-family="sans-serif" font-size="11" lengthAdjust="spacingAndGlyphs" textLength="215" x="180" y="300.7589">alquilarVehiculo(vehiculo: Vehiculo): void</text><ellipse cx="171" cy="310.9819" fill="#84BE84" rx="3" ry="3" style="stroke: #038048; stroke-width: 1.0;"/><text fill="#000000" font-family="sans-serif" font-size="11" lengthAdjust="spacingAndGlyphs" textLength="221" x="180" y="315.7408">devolverVehiculo(vehiculo: Vehiculo): void</text><!--MD5=[82e55fbadcf81394abef0491cb8b4a79]
class Alquiler--><rect fill="#FEFECE" filter="url(#fcjev63uogj9d)" height="77.9638" id="Alquiler" style="stroke: #A80036; stroke-width: 1.5;" width="121" x="223" y="8"/><ellipse cx="258.7" cy="24" fill="#ADD1B2" rx="11" ry="11" style="stroke: #A80036; stroke-width: 1.0;"/><path d="M261.6688,29.6406 Q261.0906,29.9375 260.45,30.0781 Q259.8094,30.2344 259.1063,30.2344 Q256.6063,30.2344 255.2781,28.5938 Q253.9656,26.9375 253.9656,23.8125 Q253.9656,20.6875 255.2781,19.0313 Q256.6063,17.375 259.1063,17.375 Q259.8094,17.375 260.45,17.5313 Q261.1063,17.6875 261.6688,17.9844 L261.6688,20.7031 Q261.0438,20.125 260.45,19.8594 Q259.8563,19.5781 259.2313,19.5781 Q257.8875,19.5781 257.2,20.6563 Q256.5125,21.7188 256.5125,23.8125 Q256.5125,25.9063 257.2,26.9844 Q257.8875,28.0469 259.2313,28.0469 Q259.8563,28.0469 260.45,27.7813 Q261.0438,27.5 261.6688,26.9219 L261.6688,29.6406 Z "/><text fill="#000000" font-family="sans-serif" font-size="12" lengthAdjust="spacingAndGlyphs" textLength="43" x="277.3" y="28.656">Alquiler</text><line style="stroke: #A80036; stroke-width: 1.5;" x1="224" x2="343" y1="40" y2="40"/><rect fill="none" height="6" style="stroke: #C82930; stroke-width: 1.0;" width="6" x="231" y="48"/><text fill="#000000" font-family="sans-serif" font-size="11" lengthAdjust="spacingAndGlyphs" textLength="87" x="243" y="55.7589">usuario: Usuario</text><rect fill="none" height="6" style="stroke: #C82930; stroke-width: 1.0;" width="6" x="231" y="62.9819"/><text fill="#000000" font-family="sans-serif" font-size="11" lengthAdjust="spacingAndGlyphs" textLength="95" x="243" y="70.7408">vehiculo: Vehiculo</text><line style="stroke: #A80036; stroke-width: 1.5;" x1="224" x2="343" y1="77.9638" y2="77.9638"/><!--MD5=[9e591b543e3db53da35fb78052b38242]
class SMU--><rect fill="#FEFECE" filter="url(#fcjev63uogj9d)" height="103.6339" id="SMU" style="stroke: #A80036; stroke-width: 1.5;" width="405" x="130" y="402"/><ellipse cx="299.25" cy="423.3441" fill="#FF7700" rx="11" ry="11" style="stroke: #A80036; stroke-width: 1.0;"/><path d="M298.7344,423.9066 Q296.875,423.2035 296.2188,422.4379 Q295.5781,421.6566 295.5781,420.3441 Q295.5781,418.6566 296.6563,417.6879 Q297.7344,416.7191 299.6094,416.7191 Q300.4688,416.7191 301.3125,416.9222 Q302.1719,417.1097 303.0156,417.5004 L303.0156,419.891 Q302.2344,419.3285 301.4063,419.0472 Q300.5938,418.7504 299.7969,418.7504 Q298.9219,418.7504 298.4375,419.1097 Q297.9688,419.4691 297.9688,420.1254 Q297.9688,420.641 298.3125,420.9847 Q298.6563,421.3129 299.75,421.7191 L300.8125,422.1254 Q302.2969,422.6722 303,423.5785 Q303.7188,424.4847 303.7188,425.8597 Q303.7188,427.7347 302.6094,428.6566 Q301.5,429.5785 299.25,429.5785 Q298.3281,429.5785 297.4063,429.3597 Q296.4844,429.141 295.625,428.7191 L295.625,426.1879 Q296.5938,426.8754 297.5156,427.2191 Q298.4375,427.5629 299.3281,427.5629 Q300.2344,427.5629 300.7344,427.1566 Q301.2344,426.7347 301.2344,426.0004 Q301.2344,425.4379 300.8906,425.0316 Q300.5625,424.6097 299.9375,424.3597 L298.7344,423.9066 Z "/><text fill="#000000" font-family="sans-serif" font-size="12" font-style="italic" lengthAdjust="spacingAndGlyphs" textLength="62" x="317.75" y="419.8281">«Singleton»</text><text fill="#000000" font-family="sans-serif" font-size="12" lengthAdjust="spacingAndGlyphs" textLength="27" x="335.25" y="436.1722">SMU</text><line style="stroke: #A80036; stroke-width: 1.5;" x1="131" x2="534" y1="444.6882" y2="444.6882"/><line style="stroke: #A80036; stroke-width: 1.5;" x1="131" x2="534" y1="452.6882" y2="452.6882"/><ellipse cx="141" cy="463.6882" fill="#84BE84" rx="3" ry="3" style="stroke: #038048; stroke-width: 1.0;"/><text fill="#000000" font-family="sans-serif" font-size="11" lengthAdjust="spacingAndGlyphs" textLength="193" x="150" y="468.4471">getVehiculosDisponibles(): Vehiculo[]</text><ellipse cx="141" cy="478.6701" fill="#84BE84" rx="3" ry="3" style="stroke: #038048; stroke-width: 1.0;"/><text fill="#000000" font-family="sans-serif" font-size="11" lengthAdjust="spacingAndGlyphs" textLength="167" x="150" y="483.429">getAlquileresActivos(): Alquiler[]</text><ellipse cx="141" cy="493.652" fill="#84BE84" rx="3" ry="3" style="stroke: #038048; stroke-width: 1.0;"/><text fill="#000000" font-family="sans-serif" font-size="11" lengthAdjust="spacingAndGlyphs" textLength="379" x="150" y="498.4109">registrarOperacionDeAlquiler(usuario: Usuario, vehiculo: Vehiculo): void</text><!--MD5=[4e600fe1d8f1234ca89e16eba9913bd4]
reverse link Vehiculo to Bicicleta--><path d="M74.07,711.77 C67.43,726.94 60.88,741.89 55.73,753.65 " fill="none" id="Vehiculo&lt;-Bicicleta" style="stroke: #A80036; stroke-width: 1.0;"/><polygon fill="none" points="67.7,708.87,82.13,693.36,80.52,714.49,67.7,708.87" style="stroke: #A80036; stroke-width: 1.0;"/><!--MD5=[1e7203d7d7724621e6e0baa409312b78]
reverse link Vehiculo to Monopatin--><path d="M137.45,711.77 C144.21,726.94 150.87,741.89 156.1,753.65 " fill="none" id="Vehiculo&lt;-Monopatin" style="stroke: #A80036; stroke-width: 1.0;"/><polygon fill="none" points="131,714.48,129.26,693.36,143.79,708.78,131,714.48" style="stroke: #A80036; stroke-width: 1.0;"/><!--MD5=[5698b6008e566b3cdee45472119f70d5]
link SMU to Alquiler--><path d="M379.87,401.73 C397.5,379.3 415.41,351.59 424.5,323 C435.01,289.96 435.1,278.01 424.5,245 C405.15,184.72 359.81,127.23 325.73,90.08 " fill="none" id="SMU-&gt;Alquiler" style="stroke: #A80036; stroke-width: 1.0;"/><polygon fill="#A80036" points="322.06,86.1,325.2404,95.4212,325.4573,89.7685,331.11,89.9855,322.06,86.1" style="stroke: #A80036; stroke-width: 1.0;"/><text fill="#000000" font-family="sans-serif" font-size="13" lengthAdjust="spacingAndGlyphs" textLength="46" x="414.5" y="210.897">registra</text><text fill="#000000" font-family="sans-serif" font-size="13" lengthAdjust="spacingAndGlyphs" textLength="7" x="379.0392" y="390.1566">1</text><text fill="#000000" font-family="sans-serif" font-size="13" lengthAdjust="spacingAndGlyphs" textLength="7" x="320.8668" y="107.9422">*</text><!--MD5=[a32b7b0f3141bebd2bb18e904b202850]
link SMU to Vehiculo--><path d="M268.97,506.22 C239.84,529.7 205.24,557.59 175.38,581.66 " fill="none" id="SMU-&gt;Vehiculo" style="stroke: #A80036; stroke-width: 1.0;"/><polygon fill="#A80036" points="171.39,584.88,180.9087,582.3514,175.2845,581.7443,175.8916,576.1201,171.39,584.88" style="stroke: #A80036; stroke-width: 1.0;"/><text fill="#000000" font-family="sans-serif" font-size="13" lengthAdjust="spacingAndGlyphs" textLength="46" x="227.5" y="550.897">registra</text><text fill="#000000" font-family="sans-serif" font-size="13" lengthAdjust="spacingAndGlyphs" textLength="7" x="253.8007" y="527.5826">1</text><text fill="#000000" font-family="sans-serif" font-size="13" lengthAdjust="spacingAndGlyphs" textLength="7" x="173.1636" y="573.0258">*</text><!--MD5=[fa68808c7b928951fe462125bb8e042d]
link Alquiler to Usuario--><path d="M283.5,86.02 C283.5,127.96 283.5,195.34 283.5,239.39 " fill="none" id="Alquiler-&gt;Usuario" style="stroke: #A80036; stroke-width: 1.0;"/><polygon fill="#A80036" points="283.5,244.65,287.5,235.65,283.5,239.65,279.5,235.65,283.5,244.65" style="stroke: #A80036; stroke-width: 1.0;"/><text fill="#000000" font-family="sans-serif" font-size="13" lengthAdjust="spacingAndGlyphs" textLength="46" x="284.5" y="161.897">registra</text><!--MD5=[e30c7437b869432ab9995672b9c176af]
link Alquiler to Vehiculo--><path d="M222.79,53.9 C161.71,63.57 76.5,88.99 76.5,155.5 C76.5,155.5 76.5,155.5 76.5,455 C76.5,497 84.04,543.77 91.44,579.51 " fill="none" id="Alquiler-&gt;Vehiculo" style="stroke: #A80036; stroke-width: 1.0;"/><polygon fill="#A80036" points="92.53,584.7,94.5901,575.069,91.4999,579.8073,86.7617,576.7171,92.53,584.7" style="stroke: #A80036; stroke-width: 1.0;"/><text fill="#000000" font-family="sans-serif" font-size="13" lengthAdjust="spacingAndGlyphs" textLength="46" x="77.5" y="289.397">registra</text><!--MD5=[3263dcb3138973b485ee4918b501d5fe]
link Usuario to SMU--><path d="M294.62,323.12 C301,344.99 309.12,372.85 316.21,397.16 " fill="none" id="Usuario-&gt;SMU" style="stroke: #A80036; stroke-width: 1.0; stroke-dasharray: 7.0,7.0;"/><polygon fill="#A80036" points="317.62,401.97,318.94,392.21,316.22,397.17,311.26,394.45,317.62,401.97" style="stroke: #A80036; stroke-width: 1.0;"/><text fill="#000000" font-family="sans-serif" font-size="13" lengthAdjust="spacingAndGlyphs" textLength="35" x="309.5" y="367.897">utiliza</text><!--MD5=[a063dd78183a08bb5321bd28ebb60690]
@startuml
abstract class Vehiculo {
  #disponible: boolean
  +estaDisponible(): boolean
  +alquilar(): void
  +devolver(): void
}

class Bicicleta extends Vehiculo {
}

class Monopatin extends Vehiculo {
}

class Usuario {

    +alquilarVehiculo(vehiculo: Vehiculo): void
    +devolverVehiculo(vehiculo: Vehiculo): void

}

class Alquiler {
    -usuario: Usuario
    -vehiculo: Vehiculo

}

class SMU << (S,#FF7700) Singleton >> {
    +getVehiculosDisponibles(): Vehiculo[]
    +getAlquileresActivos(): Alquiler[]
    +registrarOperacionDeAlquiler(usuario: Usuario, vehiculo: Vehiculo): void
}

SMU "1" - -> "*" Alquiler : registra
SMU "1" - -> "*" Vehiculo : registra
Alquiler - - -> Usuario : registra
Alquiler - - -> Vehiculo : registra
Usuario ..> SMU : utiliza

@enduml

PlantUML version 1.2020.02(Sun Mar 01 07:22:07 GMT-03:00 2020)
(GPL source distribution)
Java Runtime: Java(TM) SE Runtime Environment
JVM: Java HotSpot(TM) 64-Bit Server VM
Java Version: 25.0.2+10-LTS-69
Operating System: Linux
Default Encoding: UTF-8
Language: es
Country: AR
--></g></svg>