<?xml version="1.0" encoding="UTF-8" standalone="no"?><svg xmlns="http://www.w3.org/2000/svg" xmlns:xlink="http://www.w3.org/1999/xlink" contentScriptType="application/ecmascript" contentStyleType="text/css" height="813px" preserveAspectRatio="none" style="width:657px;height:813px;" version="1.1" viewBox="0 0 657 813" width="657px" zoomAndPan="magnify"><defs><filter height="300%" id="f1newce2fmh9wg" width="300%" x="-1" y="-1"><feGaussianBlur result="blurOut" stdDeviation="2.0"/><feColorMatrix in="blurOut" result="blurOut2" type="matrix" values="0 0 0 0 0 0 0 0 0 0 0 0 0 0 0 0 0 0 .4 0"/><feOffset dx="4.0" dy="4.0" in="blurOut2" result="blurOut3"/><feBlend in="SourceGraphic" in2="blurOut3" mode="normal"/></filter></defs><g><!--MD5=[1d6438b19b75334de94d74596f8416e5]
class Vehiculo--><rect fill="#FEFECE" filter="url(#f1newce2fmh9wg)" height="92.9457" id="Vehiculo" style="stroke: #A80036; stroke-width: 1.5;" width="236" x="6" y="600"/><ellipse cx="97.25" cy="616" fill="#A9DCDF" rx="11" ry="11" style="stroke: #A80036; stroke-width: 1.0;"/><path d="M97.3594,611.3438 L96.2031,616.4219 L98.5313,616.4219 L97.3594,611.3438 Z M95.875,609.1094 L98.8594,609.1094 L102.2188,621.5 L99.7656,621.5 L99,618.4375 L95.7188,618.4375 L94.9688,621.5 L92.5313,621.5 L95.875,609.1094 Z "/><text fill="#000000" font-family="sans-serif" font-size="12" font-style="italic" lengthAdjust="spacingAndGlyphs" textLength="45" x="117.75" y="620.656">Vehiculo</text><line style="stroke: #A80036; stroke-width: 1.5;" x1="7" x2="241" y1="632" y2="632"/><polygon fill="none" points="17,638,21,642,17,646,13,642" style="stroke: #B38D22; stroke-width: 1.0;"/><text fill="#000000" font-family="sans-serif" font-size="11" lengthAdjust="spacingAndGlyphs" textLength="104" x="26" y="647.7589">disponible: boolean</text><line style="stroke: #A80036; stroke-width: 1.5;" x1="7" x2="241" y1="654.9819" y2="654.9819"/><ellipse cx="17" cy="665.9819" fill="#84BE84" rx="3" ry="3" style="stroke: #038048; stroke-width: 1.0;"/><text fill="#000000" font-family="sans-serif" font-size="11" lengthAdjust="spacingAndGlyphs" textLength="119" x="26" y="670.7408">isDisponible(): boolean</text><ellipse cx="17" cy="680.9638" fill="#84BE84" rx="3" ry="3" style="stroke: #038048; stroke-width: 1.0;"/><text fill="#000000" font-family="sans-serif" font-size="11" lengthAdjust="spacingAndGlyphs" textLength="210" x="26" y="685.7227">setDisponible(disponible: boolean): void</text><!--MD5=[572860b2a845a564b9eac3168aac5947]
class Bicicleta--><rect fill="#FEFECE" filter="url(#f1newce2fmh9wg)" height="48" id="Bicicleta" style="stroke: #A80036; stroke-width: 1.5;" width="79" x="24.5" y="754"/><ellipse cx="39.5" cy="770" fill="#ADD1B2" rx="11" ry="11" style="stroke: #A80036; stroke-width: 1.0;"/><path d="M42.4688,775.6406 Q41.8906,775.9375 41.25,776.0781 Q40.6094,776.2344 39.9063,776.2344 Q37.4063,776.2344 36.0781,774.5938 Q34.7656,772.9375 34.7656,769.8125 Q34.7656,766.6875 36.0781,765.0313 Q37.4063,763.375 39.9063,763.375 Q40.6094,763.375 41.25,763.5313 Q41.9063,763.6875 42.4688,763.9844 L42.4688,766.7031 Q41.8438,766.125 41.25,765.8594 Q40.6563,765.5781 40.0313,765.5781 Q38.6875,765.5781 38,766.6563 Q37.3125,767.7188 37.3125,769.8125 Q37.3125,771.9063 38,772.9844 Q38.6875,774.0469 40.0313,774.0469 Q40.6563,774.0469 41.25,773.7813 Q41.8438,773.5 42.4688,772.9219 L42.4688,775.6406 Z "/><text fill="#000000" font-family="sans-serif" font-size="12" lengthAdjust="spacingAndGlyphs" textLength="47" x="53.5" y="774.656">Bicicleta</text><line style="stroke: #A80036; stroke-width: 1.5;" x1="25.5" x2="102.5" y1="786" y2="786"/><line style="stroke: #A80036; stroke-width: 1.5;" x1="25.5" x2="102.5" y1="794" y2="794"/><!--MD5=[9ca9535c3446951970d9daebb16c0d02]
class Monopatin--><rect fill="#FEFECE" filter="url(#f1newce2fmh9wg)" height="48" id="Monopatin" style="stroke: #A80036; stroke-width: 1.5;" width="92" x="139" y="754"/><ellipse cx="154" cy="770" fill="#ADD1B2" rx="11" ry="11" style="stroke: #A80036; stroke-width: 1.0;"/><path d="M156.9688,775.6406 Q156.3906,775.9375 155.75,776.0781 Q155.1094,776.2344 154.4063,776.2344 Q151.9063,776.2344 150.5781,774.5938 Q149.2656,772.9375 149.2656,769.8125 Q149.2656,766.6875 150.5781,765.0313 Q151.9063,763.375 154.4063,763.375 Q155.1094,763.375 155.75,763.5313 Q156.4063,763.6875 156.9688,763.9844 L156.9688,766.7031 Q156.3438,766.125 155.75,765.8594 Q155.1563,765.5781 154.5313,765.5781 Q153.1875,765.5781 152.5,766.6563 Q151.8125,767.7188 151.8125,769.8125 Q151.8125,771.9063 152.5,772.9844 Q153.1875,774.0469 154.5313,774.0469 Q155.1563,774.0469 155.75,773.7813 Q156.3438,773.5 156.9688,772.9219 L156.9688,775.6406 Z "/><text fill="#000000" font-family="sans-serif" font-size="12" lengthAdjust="spacingAndGlyphs" textLength="60" x="168" y="774.656">Monopatin</text><line style="stroke: #A80036; stroke-width: 1.5;" x1="140" x2="230" y1="786" y2="786"/><line style="stroke: #A80036; stroke-width: 1.5;" x1="140" x2="230" y1="794" y2="794"/><!--MD5=[35a64b983c79880384a2fd9b61f0c24b]
class Usuario--><rect fill="#FEFECE" filter="url(#f1newce2fmh9wg)" height="77.9638" id="Usuario" style="stroke: #A80036; stroke-width: 1.5;" width="334" x="178" y="245"/><ellipse cx="318.75" cy="261" fill="#ADD1B2" rx="11" ry="11" style="stroke: #A80036; stroke-width: 1.0;"/><path d="M321.7188,266.6406 Q321.1406,266.9375 320.5,267.0781 Q319.8594,267.2344 319.1563,267.2344 Q316.6563,267.2344 315.3281,265.5938 Q314.0156,263.9375 314.0156,260.8125 Q314.0156,257.6875 315.3281,256.0313 Q316.6563,254.375 319.1563,254.375 Q319.8594,254.375 320.5,254.5313 Q321.1563,254.6875 321.7188,254.9844 L321.7188,257.7031 Q321.0938,257.125 320.5,256.8594 Q319.9063,256.5781 319.2813,256.5781 Q317.9375,256.5781 317.25,257.6563 Q316.5625,258.7188 316.5625,260.8125 Q316.5625,262.9063 317.25,263.9844 Q317.9375,265.0469 319.2813,265.0469 Q319.9063,265.0469 320.5,264.7813 Q321.0938,264.5 321.7188,263.9219 L321.7188,266.6406 Z "/><text fill="#000000" font-family="sans-serif" font-size="12" lengthAdjust="spacingAndGlyphs" textLength="44" x="339.25" y="265.656">Usuario</text><line style="stroke: #A80036; stroke-width: 1.5;" x1="179" x2="511" y1="277" y2="277"/><line style="stroke: #A80036; stroke-width: 1.5;" x1="179" x2="511" y1="285" y2="285"/><ellipse cx="189" cy="296" fill="#84BE84" rx="3" ry="3" style="stroke: #038048; stroke-width: 1.0;"/><text fill="#000000" font-family="sans-serif" font-size="11" lengthAdjust="spacingAndGlyphs" textLength="308" x="198" y="300.7589">alquilarVehiculo(vehiculo: Vehiculo, cantidadDias: int): void</text><ellipse cx="189" cy="310.9819" fill="#84BE84" rx="3" ry="3" style="stroke: #038048; stroke-width: 1.0;"/><text fill="#000000" font-family="sans-serif" font-size="11" lengthAdjust="spacingAndGlyphs" textLength="126" x="198" y="315.7408">devolverVehiculo(): void</text><!--MD5=[82e55fbadcf81394abef0491cb8b4a79]
class Alquiler--><rect fill="#FEFECE" filter="url(#f1newce2fmh9wg)" height="77.9638" id="Alquiler" style="stroke: #A80036; stroke-width: 1.5;" width="121" x="284.5" y="8"/><ellipse cx="320.2" cy="24" fill="#ADD1B2" rx="11" ry="11" style="stroke: #A80036; stroke-width: 1.0;"/><path d="M323.1688,29.6406 Q322.5906,29.9375 321.95,30.0781 Q321.3094,30.2344 320.6063,30.2344 Q318.1063,30.2344 316.7781,28.5938 Q315.4656,26.9375 315.4656,23.8125 Q315.4656,20.6875 316.7781,19.0313 Q318.1063,17.375 320.6063,17.375 Q321.3094,17.375 321.95,17.5313 Q322.6063,17.6875 323.1688,17.9844 L323.1688,20.7031 Q322.5438,20.125 321.95,19.8594 Q321.3563,19.5781 320.7313,19.5781 Q319.3875,19.5781 318.7,20.6563 Q318.0125,21.7188 318.0125,23.8125 Q318.0125,25.9063 318.7,26.9844 Q319.3875,28.0469 320.7313,28.0469 Q321.3563,28.0469 321.95,27.7813 Q322.5438,27.5 323.1688,26.9219 L323.1688,29.6406 Z "/><text fill="#000000" font-family="sans-serif" font-size="12" lengthAdjust="spacingAndGlyphs" textLength="43" x="338.8" y="28.656">Alquiler</text><line style="stroke: #A80036; stroke-width: 1.5;" x1="285.5" x2="404.5" y1="40" y2="40"/><rect fill="none" height="6" style="stroke: #C82930; stroke-width: 1.0;" width="6" x="292.5" y="48"/><text fill="#000000" font-family="sans-serif" font-size="11" lengthAdjust="spacingAndGlyphs" textLength="87" x="304.5" y="55.7589">usuario: Usuario</text><rect fill="none" height="6" style="stroke: #C82930; stroke-width: 1.0;" width="6" x="292.5" y="62.9819"/><text fill="#000000" font-family="sans-serif" font-size="11" lengthAdjust="spacingAndGlyphs" textLength="95" x="304.5" y="70.7408">vehiculo: Vehiculo</text><line style="stroke: #A80036; stroke-width: 1.5;" x1="285.5" x2="404.5" y1="77.9638" y2="77.9638"/><!--MD5=[9e591b543e3db53da35fb78052b38242]
class SMU--><rect fill="#FEFECE" filter="url(#f1newce2fmh9wg)" height="118.6158" id="SMU" style="stroke: #A80036; stroke-width: 1.5;" width="498" x="148" y="402"/><ellipse cx="363.75" cy="423.3441" fill="#FF7700" rx="11" ry="11" style="stroke: #A80036; stroke-width: 1.0;"/><path d="M363.2344,423.9066 Q361.375,423.2035 360.7188,422.4379 Q360.0781,421.6566 360.0781,420.3441 Q360.0781,418.6566 361.1563,417.6879 Q362.2344,416.7191 364.1094,416.7191 Q364.9688,416.7191 365.8125,416.9222 Q366.6719,417.1097 367.5156,417.5004 L367.5156,419.891 Q366.7344,419.3285 365.9063,419.0472 Q365.0938,418.7504 364.2969,418.7504 Q363.4219,418.7504 362.9375,419.1097 Q362.4688,419.4691 362.4688,420.1254 Q362.4688,420.641 362.8125,420.9847 Q363.1563,421.3129 364.25,421.7191 L365.3125,422.1254 Q366.7969,422.6722 367.5,423.5785 Q368.2188,424.4847 368.2188,425.8597 Q368.2188,427.7347 367.1094,428.6566 Q366,429.5785 363.75,429.5785 Q362.8281,429.5785 361.9063,429.3597 Q360.9844,429.141 360.125,428.7191 L360.125,426.1879 Q361.0938,426.8754 362.0156,427.2191 Q362.9375,427.5629 363.8281,427.5629 Q364.7344,427.5629 365.2344,427.1566 Q365.7344,426.7347 365.7344,426.0004 Q365.7344,425.4379 365.3906,425.0316 Q365.0625,424.6097 364.4375,424.3597 L363.2344,423.9066 Z "/><text fill="#000000" font-family="sans-serif" font-size="12" font-style="italic" lengthAdjust="spacingAndGlyphs" textLength="62" x="382.25" y="419.8281">«Singleton»</text><text fill="#000000" font-family="sans-serif" font-size="12" lengthAdjust="spacingAndGlyphs" textLength="27" x="399.75" y="436.1722">SMU</text><line style="stroke: #A80036; stroke-width: 1.5;" x1="149" x2="645" y1="444.6882" y2="444.6882"/><line style="stroke: #A80036; stroke-width: 1.5;" x1="149" x2="645" y1="452.6882" y2="452.6882"/><ellipse cx="159" cy="463.6882" fill="#84BE84" rx="3" ry="3" style="stroke: #038048; stroke-width: 1.0;"/><text fill="#000000" font-family="sans-serif" font-size="11" lengthAdjust="spacingAndGlyphs" textLength="193" x="168" y="468.4471">getVehiculosDisponibles(): Vehiculo[]</text><ellipse cx="159" cy="478.6701" fill="#84BE84" rx="3" ry="3" style="stroke: #038048; stroke-width: 1.0;"/><text fill="#000000" font-family="sans-serif" font-size="11" lengthAdjust="spacingAndGlyphs" textLength="167" x="168" y="483.429">getAlquileresActivos(): Alquiler[]</text><ellipse cx="159" cy="493.652" fill="#84BE84" rx="3" ry="3" style="stroke: #038048; stroke-width: 1.0;"/><text fill="#000000" font-family="sans-serif" font-size="11" lengthAdjust="spacingAndGlyphs" textLength="472" x="168" y="498.4109">registrarOperacionDeAlquiler(usuario: Usuario, vehiculo: Vehiculo, cantidadDias: int): void</text><ellipse cx="159" cy="508.6339" fill="#84BE84" rx="3" ry="3" style="stroke: #038048; stroke-width: 1.0;"/><text fill="#000000" font-family="sans-serif" font-size="11" lengthAdjust="spacingAndGlyphs" textLength="310" x="168" y="513.3928">terminarAlquiler(usuario: Usuario, vehiculo: Vehiculo): void</text><!--MD5=[4e600fe1d8f1234ca89e16eba9913bd4]
reverse link Vehiculo to Bicicleta--><path d="M94.37,711.44 C87.33,726.65 80.26,741.91 74.71,753.87 " fill="none" id="Vehiculo&lt;-Bicicleta" style="stroke: #A80036; stroke-width: 1.0;"/><polygon fill="none" points="88.09,708.36,102.85,693.16,100.79,714.25,88.09,708.36" style="stroke: #A80036; stroke-width: 1.0;"/><!--MD5=[1e7203d7d7724621e6e0baa409312b78]
reverse link Vehiculo to Monopatin--><path d="M154.12,711.44 C161.28,726.65 168.47,741.91 174.11,753.87 " fill="none" id="Vehiculo&lt;-Monopatin" style="stroke: #A80036; stroke-width: 1.0;"/><polygon fill="none" points="147.7,714.23,145.51,693.16,160.36,708.27,147.7,714.23" style="stroke: #A80036; stroke-width: 1.0;"/><!--MD5=[5698b6008e566b3cdee45472119f70d5]
link SMU to Alquiler--><path d="M472.64,401.72 C495.17,379.73 517.02,352.78 529,323 C541.94,290.84 541.72,277.25 529,245 C503.58,180.55 446.04,124.77 402.02,89.18 " fill="none" id="SMU-&gt;Alquiler" style="stroke: #A80036; stroke-width: 1.0;"/><polygon fill="#A80036" points="398.07,86.01,402.5873,94.7618,401.9702,89.1387,407.5932,88.5215,398.07,86.01" style="stroke: #A80036; stroke-width: 1.0;"/><text fill="#000000" font-family="sans-serif" font-size="13" lengthAdjust="spacingAndGlyphs" textLength="46" x="516" y="210.897">registra</text><text fill="#000000" font-family="sans-serif" font-size="13" lengthAdjust="spacingAndGlyphs" textLength="7" x="474.4321" y="390.3618">1</text><text fill="#000000" font-family="sans-serif" font-size="13" lengthAdjust="spacingAndGlyphs" textLength="7" x="399.28" y="107.8373">*</text><!--MD5=[a32b7b0f3141bebd2bb18e904b202850]
link SMU to Vehiculo--><path d="M309.49,521.16 C272.93,545.67 230.95,573.81 196.19,597.11 " fill="none" id="SMU-&gt;Vehiculo" style="stroke: #A80036; stroke-width: 1.0;"/><polygon fill="#A80036" points="191.98,599.93,201.6833,598.2428,196.1337,597.1466,197.2299,591.597,191.98,599.93" style="stroke: #A80036; stroke-width: 1.0;"/><text fill="#000000" font-family="sans-serif" font-size="13" lengthAdjust="spacingAndGlyphs" textLength="46" x="262" y="565.897">registra</text><text fill="#000000" font-family="sans-serif" font-size="13" lengthAdjust="spacingAndGlyphs" textLength="7" x="292.5358" y="542.5716">1</text><text fill="#000000" font-family="sans-serif" font-size="13" lengthAdjust="spacingAndGlyphs" textLength="7" x="195.2565" y="588.1108">*</text><!--MD5=[fa68808c7b928951fe462125bb8e042d]
link Alquiler to Usuario--><path d="M345,86.02 C345,127.96 345,195.34 345,239.39 " fill="none" id="Alquiler-&gt;Usuario" style="stroke: #A80036; stroke-width: 1.0;"/><polygon fill="#A80036" points="345,244.65,349,235.65,345,239.65,341,235.65,345,244.65" style="stroke: #A80036; stroke-width: 1.0;"/><text fill="#000000" font-family="sans-serif" font-size="13" lengthAdjust="spacingAndGlyphs" textLength="46" x="346" y="161.897">registra</text><!--MD5=[e30c7437b869432ab9995672b9c176af]
link Alquiler to Vehiculo--><path d="M284.48,48.72 C210.49,53.17 95,73.29 95,155.5 C95,155.5 95,155.5 95,462.5 C95,507.57 103.69,558.12 111.55,594.65 " fill="none" id="Alquiler-&gt;Vehiculo" style="stroke: #A80036; stroke-width: 1.0;"/><polygon fill="#A80036" points="112.7,599.94,114.6793,590.2921,111.629,595.0561,106.865,592.0057,112.7,599.94" style="stroke: #A80036; stroke-width: 1.0;"/><text fill="#000000" font-family="sans-serif" font-size="13" lengthAdjust="spacingAndGlyphs" textLength="46" x="96" y="289.397">registra</text><!--MD5=[3263dcb3138973b485ee4918b501d5fe]
link Usuario to SMU--><path d="M356.28,323.08 C362.67,344.63 370.82,372.14 378.15,396.87 " fill="none" id="Usuario-&gt;SMU" style="stroke: #A80036; stroke-width: 1.0; stroke-dasharray: 7.0,7.0;"/><polygon fill="#A80036" points="379.6,401.78,380.8932,392.0164,378.1869,396.9839,373.2194,394.2775,379.6,401.78" style="stroke: #A80036; stroke-width: 1.0;"/><text fill="#000000" font-family="sans-serif" font-size="13" lengthAdjust="spacingAndGlyphs" textLength="35" x="371" y="367.897">utiliza</text><!--MD5=[64826ffac04cbed8132b33445e74772c]
@startuml
abstract class Vehiculo {
  #disponible: boolean
  +isDisponible(): boolean
  +setDisponible(disponible: boolean): void
}

class Bicicleta extends Vehiculo {
}

class Monopatin extends Vehiculo {
}

class Usuario {

    +alquilarVehiculo(vehiculo: Vehiculo, cantidadDias: int): void
    +devolverVehiculo(): void

}

class Alquiler {
    -usuario: Usuario
    -vehiculo: Vehiculo

}

class SMU << (S,#FF7700) Singleton >> {
    +getVehiculosDisponibles(): Vehiculo[]
    +getAlquileresActivos(): Alquiler[]
    +registrarOperacionDeAlquiler(usuario: Usuario, vehiculo: Vehiculo, cantidadDias: int): void
    +terminarAlquiler(usuario: Usuario, vehiculo: Vehiculo): void

}

SMU "1" - -> "*" Alquiler : registra
SMU "1" - -> "*" Vehiculo : registra
Alquiler - - -> Usuario : registra
Alquiler - - -> Vehiculo : registra
Usuario ..> SMU : utiliza

@enduml

PlantUML version 1.2020.02(Sun Mar 01 07:22:07 GMT-03:00 2020)
(GPL source distribution)
Java Runtime: Java(TM) SE Runtime Environment
JVM: Java HotSpot(TM) 64-Bit Server VM
Java Version: 25.0.2+10-LTS-69
Operating System: Linux
Default Encoding: UTF-8
Language: es
Country: AR
--></g></svg>