<?xml version="1.0" encoding="UTF-8" standalone="no"?><svg xmlns="http://www.w3.org/2000/svg" xmlns:xlink="http://www.w3.org/1999/xlink" contentScriptType="application/ecmascript" contentStyleType="text/css" height="828px" preserveAspectRatio="none" style="width:638px;height:828px;" version="1.1" viewBox="0 0 638 828" width="638px" zoomAndPan="magnify"><defs><filter height="300%" id="fom48kg6uerku" width="300%" x="-1" y="-1"><feGaussianBlur result="blurOut" stdDeviation="2.0"/><feColorMatrix in="blurOut" result="blurOut2" type="matrix" values="0 0 0 0 0 0 0 0 0 0 0 0 0 0 0 0 0 0 .4 0"/><feOffset dx="4.0" dy="4.0" in="blurOut2" result="blurOut3"/><feBlend in="SourceGraphic" in2="blurOut3" mode="normal"/></filter></defs><g><!--MD5=[1d6438b19b75334de94d74596f8416e5]
class Vehiculo--><rect fill="#FEFECE" filter="url(#fom48kg6uerku)" height="107.9276" id="Vehiculo" style="stroke: #A80036; stroke-width: 1.5;" width="158" x="26.5" y="600"/><ellipse cx="78.75" cy="616" fill="#A9DCDF" rx="11" ry="11" style="stroke: #A80036; stroke-width: 1.0;"/><path d="M78.8594,611.3438 L77.7031,616.4219 L80.0313,616.4219 L78.8594,611.3438 Z M77.375,609.1094 L80.3594,609.1094 L83.7188,621.5 L81.2656,621.5 L80.5,618.4375 L77.2188,618.4375 L76.4688,621.5 L74.0313,621.5 L77.375,609.1094 Z "/><text fill="#000000" font-family="sans-serif" font-size="12" font-style="italic" lengthAdjust="spacingAndGlyphs" textLength="45" x="99.25" y="620.656">Vehiculo</text><line style="stroke: #A80036; stroke-width: 1.5;" x1="27.5" x2="183.5" y1="632" y2="632"/><polygon fill="none" points="37.5,638,41.5,642,37.5,646,33.5,642" style="stroke: #B38D22; stroke-width: 1.0;"/><text fill="#000000" font-family="sans-serif" font-size="11" lengthAdjust="spacingAndGlyphs" textLength="104" x="46.5" y="647.7589">disponible: boolean</text><line style="stroke: #A80036; stroke-width: 1.5;" x1="27.5" x2="183.5" y1="654.9819" y2="654.9819"/><ellipse cx="37.5" cy="665.9819" fill="#84BE84" rx="3" ry="3" style="stroke: #038048; stroke-width: 1.0;"/><text fill="#000000" font-family="sans-serif" font-size="11" lengthAdjust="spacingAndGlyphs" textLength="132" x="46.5" y="670.7408">estaDisponible(): boolean</text><ellipse cx="37.5" cy="680.9638" fill="#84BE84" rx="3" ry="3" style="stroke: #038048; stroke-width: 1.0;"/><text fill="#000000" font-family="sans-serif" font-size="11" lengthAdjust="spacingAndGlyphs" textLength="75" x="46.5" y="685.7227">alquilar(): void</text><ellipse cx="37.5" cy="695.9457" fill="#84BE84" rx="3" ry="3" style="stroke: #038048; stroke-width: 1.0;"/><text fill="#000000" font-family="sans-serif" font-size="11" lengthAdjust="spacingAndGlyphs" textLength="81" x="46.5" y="700.7046">devolver(): void</text><!--MD5=[572860b2a845a564b9eac3168aac5947]
class Bicicleta--><rect fill="#FEFECE" filter="url(#fom48kg6uerku)" height="48" id="Bicicleta" style="stroke: #A80036; stroke-width: 1.5;" width="79" x="6" y="769"/><ellipse cx="21" cy="785" fill="#ADD1B2" rx="11" ry="11" style="stroke: #A80036; stroke-width: 1.0;"/><path d="M23.9688,790.6406 Q23.3906,790.9375 22.75,791.0781 Q22.1094,791.2344 21.4063,791.2344 Q18.9063,791.2344 17.5781,789.5938 Q16.2656,787.9375 16.2656,784.8125 Q16.2656,781.6875 17.5781,780.0313 Q18.9063,778.375 21.4063,778.375 Q22.1094,778.375 22.75,778.5313 Q23.4063,778.6875 23.9688,778.9844 L23.9688,781.7031 Q23.3438,781.125 22.75,780.8594 Q22.1563,780.5781 21.5313,780.5781 Q20.1875,780.5781 19.5,781.6563 Q18.8125,782.7188 18.8125,784.8125 Q18.8125,786.9063 19.5,787.9844 Q20.1875,789.0469 21.5313,789.0469 Q22.1563,789.0469 22.75,788.7813 Q23.3438,788.5 23.9688,787.9219 L23.9688,790.6406 Z "/><text fill="#000000" font-family="sans-serif" font-size="12" lengthAdjust="spacingAndGlyphs" textLength="47" x="35" y="789.656">Bicicleta</text><line style="stroke: #A80036; stroke-width: 1.5;" x1="7" x2="84" y1="801" y2="801"/><line style="stroke: #A80036; stroke-width: 1.5;" x1="7" x2="84" y1="809" y2="809"/><!--MD5=[9ca9535c3446951970d9daebb16c0d02]
class Monopatin--><rect fill="#FEFECE" filter="url(#fom48kg6uerku)" height="48" id="Monopatin" style="stroke: #A80036; stroke-width: 1.5;" width="92" x="120.5" y="769"/><ellipse cx="135.5" cy="785" fill="#ADD1B2" rx="11" ry="11" style="stroke: #A80036; stroke-width: 1.0;"/><path d="M138.4688,790.6406 Q137.8906,790.9375 137.25,791.0781 Q136.6094,791.2344 135.9063,791.2344 Q133.4063,791.2344 132.0781,789.5938 Q130.7656,787.9375 130.7656,784.8125 Q130.7656,781.6875 132.0781,780.0313 Q133.4063,778.375 135.9063,778.375 Q136.6094,778.375 137.25,778.5313 Q137.9063,778.6875 138.4688,778.9844 L138.4688,781.7031 Q137.8438,781.125 137.25,780.8594 Q136.6563,780.5781 136.0313,780.5781 Q134.6875,780.5781 134,781.6563 Q133.3125,782.7188 133.3125,784.8125 Q133.3125,786.9063 134,787.9844 Q134.6875,789.0469 136.0313,789.0469 Q136.6563,789.0469 137.25,788.7813 Q137.8438,788.5 138.4688,787.9219 L138.4688,790.6406 Z "/><text fill="#000000" font-family="sans-serif" font-size="12" lengthAdjust="spacingAndGlyphs" textLength="60" x="149.5" y="789.656">Monopatin</text><line style="stroke: #A80036; stroke-width: 1.5;" x1="121.5" x2="211.5" y1="801" y2="801"/><line style="stroke: #A80036; stroke-width: 1.5;" x1="121.5" x2="211.5" y1="809" y2="809"/><!--MD5=[35a64b983c79880384a2fd9b61f0c24b]
class Usuario--><rect fill="#FEFECE" filter="url(#fom48kg6uerku)" height="77.9638" id="Usuario" style="stroke: #A80036; stroke-width: 1.5;" width="334" x="159.5" y="245"/><ellipse cx="300.25" cy="261" fill="#ADD1B2" rx="11" ry="11" style="stroke: #A80036; stroke-width: 1.0;"/><path d="M303.2188,266.6406 Q302.6406,266.9375 302,267.0781 Q301.3594,267.2344 300.6563,267.2344 Q298.1563,267.2344 296.8281,265.5938 Q295.5156,263.9375 295.5156,260.8125 Q295.5156,257.6875 296.8281,256.0313 Q298.1563,254.375 300.6563,254.375 Q301.3594,254.375 302,254.5313 Q302.6563,254.6875 303.2188,254.9844 L303.2188,257.7031 Q302.5938,257.125 302,256.8594 Q301.4063,256.5781 300.7813,256.5781 Q299.4375,256.5781 298.75,257.6563 Q298.0625,258.7188 298.0625,260.8125 Q298.0625,262.9063 298.75,263.9844 Q299.4375,265.0469 300.7813,265.0469 Q301.4063,265.0469 302,264.7813 Q302.5938,264.5 303.2188,263.9219 L303.2188,266.6406 Z "/><text fill="#000000" font-family="sans-serif" font-size="12" lengthAdjust="spacingAndGlyphs" textLength="44" x="320.75" y="265.656">Usuario</text><line style="stroke: #A80036; stroke-width: 1.5;" x1="160.5" x2="492.5" y1="277" y2="277"/><line style="stroke: #A80036; stroke-width: 1.5;" x1="160.5" x2="492.5" y1="285" y2="285"/><ellipse cx="170.5" cy="296" fill="#84BE84" rx="3" ry="3" style="stroke: #038048; stroke-width: 1.0;"/><text fill="#000000" font-family="sans-serif" font-size="11" lengthAdjust="spacingAndGlyphs" textLength="308" x="179.5" y="300.7589">alquilarVehiculo(vehiculo: Vehiculo, cantidadDias: int): void</text><ellipse cx="170.5" cy="310.9819" fill="#84BE84" rx="3" ry="3" style="stroke: #038048; stroke-width: 1.0;"/><text fill="#000000" font-family="sans-serif" font-size="11" lengthAdjust="spacingAndGlyphs" textLength="126" x="179.5" y="315.7408">devolverVehiculo(): void</text><!--MD5=[82e55fbadcf81394abef0491cb8b4a79]
class Alquiler--><rect fill="#FEFECE" filter="url(#fom48kg6uerku)" height="77.9638" id="Alquiler" style="stroke: #A80036; stroke-width: 1.5;" width="121" x="266" y="8"/><ellipse cx="301.7" cy="24" fill="#ADD1B2" rx="11" ry="11" style="stroke: #A80036; stroke-width: 1.0;"/><path d="M304.6688,29.6406 Q304.0906,29.9375 303.45,30.0781 Q302.8094,30.2344 302.1063,30.2344 Q299.6063,30.2344 298.2781,28.5938 Q296.9656,26.9375 296.9656,23.8125 Q296.9656,20.6875 298.2781,19.0313 Q299.6063,17.375 302.1063,17.375 Q302.8094,17.375 303.45,17.5313 Q304.1063,17.6875 304.6688,17.9844 L304.6688,20.7031 Q304.0438,20.125 303.45,19.8594 Q302.8563,19.5781 302.2313,19.5781 Q300.8875,19.5781 300.2,20.6563 Q299.5125,21.7188 299.5125,23.8125 Q299.5125,25.9063 300.2,26.9844 Q300.8875,28.0469 302.2313,28.0469 Q302.8563,28.0469 303.45,27.7813 Q304.0438,27.5 304.6688,26.9219 L304.6688,29.6406 Z "/><text fill="#000000" font-family="sans-serif" font-size="12" lengthAdjust="spacingAndGlyphs" textLength="43" x="320.3" y="28.656">Alquiler</text><line style="stroke: #A80036; stroke-width: 1.5;" x1="267" x2="386" y1="40" y2="40"/><rect fill="none" height="6" style="stroke: #C82930; stroke-width: 1.0;" width="6" x="274" y="48"/><text fill="#000000" font-family="sans-serif" font-size="11" lengthAdjust="spacingAndGlyphs" textLength="87" x="286" y="55.7589">usuario: Usuario</text><rect fill="none" height="6" style="stroke: #C82930; stroke-width: 1.0;" width="6" x="274" y="62.9819"/><text fill="#000000" font-family="sans-serif" font-size="11" lengthAdjust="spacingAndGlyphs" textLength="95" x="286" y="70.7408">vehiculo: Vehiculo</text><line style="stroke: #A80036; stroke-width: 1.5;" x1="267" x2="386" y1="77.9638" y2="77.9638"/><!--MD5=[9e591b543e3db53da35fb78052b38242]
class SMU--><rect fill="#FEFECE" filter="url(#fom48kg6uerku)" height="118.6158" id="SMU" style="stroke: #A80036; stroke-width: 1.5;" width="498" x="129.5" y="402"/><ellipse cx="345.25" cy="423.3441" fill="#FF7700" rx="11" ry="11" style="stroke: #A80036; stroke-width: 1.0;"/><path d="M344.7344,423.9066 Q342.875,423.2035 342.2188,422.4379 Q341.5781,421.6566 341.5781,420.3441 Q341.5781,418.6566 342.6563,417.6879 Q343.7344,416.7191 345.6094,416.7191 Q346.4688,416.7191 347.3125,416.9222 Q348.1719,417.1097 349.0156,417.5004 L349.0156,419.891 Q348.2344,419.3285 347.4063,419.0472 Q346.5938,418.7504 345.7969,418.7504 Q344.9219,418.7504 344.4375,419.1097 Q343.9688,419.4691 343.9688,420.1254 Q343.9688,420.641 344.3125,420.9847 Q344.6563,421.3129 345.75,421.7191 L346.8125,422.1254 Q348.2969,422.6722 349,423.5785 Q349.7188,424.4847 349.7188,425.8597 Q349.7188,427.7347 348.6094,428.6566 Q347.5,429.5785 345.25,429.5785 Q344.3281,429.5785 343.4063,429.3597 Q342.4844,429.141 341.625,428.7191 L341.625,426.1879 Q342.5938,426.8754 343.5156,427.2191 Q344.4375,427.5629 345.3281,427.5629 Q346.2344,427.5629 346.7344,427.1566 Q347.2344,426.7347 347.2344,426.0004 Q347.2344,425.4379 346.8906,425.0316 Q346.5625,424.6097 345.9375,424.3597 L344.7344,423.9066 Z "/><text fill="#000000" font-family="sans-serif" font-size="12" font-style="italic" lengthAdjust="spacingAndGlyphs" textLength="62" x="363.75" y="419.8281">«Singleton»</text><text fill="#000000" font-family="sans-serif" font-size="12" lengthAdjust="spacingAndGlyphs" textLength="27" x="381.25" y="436.1722">SMU</text><line style="stroke: #A80036; stroke-width: 1.5;" x1="130.5" x2="626.5" y1="444.6882" y2="444.6882"/><line style="stroke: #A80036; stroke-width: 1.5;" x1="130.5" x2="626.5" y1="452.6882" y2="452.6882"/><ellipse cx="140.5" cy="463.6882" fill="#84BE84" rx="3" ry="3" style="stroke: #038048; stroke-width: 1.0;"/><text fill="#000000" font-family="sans-serif" font-size="11" lengthAdjust="spacingAndGlyphs" textLength="193" x="149.5" y="468.4471">getVehiculosDisponibles(): Vehiculo[]</text><ellipse cx="140.5" cy="478.6701" fill="#84BE84" rx="3" ry="3" style="stroke: #038048; stroke-width: 1.0;"/><text fill="#000000" font-family="sans-serif" font-size="11" lengthAdjust="spacingAndGlyphs" textLength="167" x="149.5" y="483.429">getAlquileresActivos(): Alquiler[]</text><ellipse cx="140.5" cy="493.652" fill="#84BE84" rx="3" ry="3" style="stroke: #038048; stroke-width: 1.0;"/><text fill="#000000" font-family="sans-serif" font-size="11" lengthAdjust="spacingAndGlyphs" textLength="472" x="149.5" y="498.4109">registrarOperacionDeAlquiler(usuario: Usuario, vehiculo: Vehiculo, cantidadDias: int): void</text><ellipse cx="140.5" cy="508.6339" fill="#84BE84" rx="3" ry="3" style="stroke: #038048; stroke-width: 1.0;"/><text fill="#000000" font-family="sans-serif" font-size="11" lengthAdjust="spacingAndGlyphs" textLength="310" x="149.5" y="513.3928">terminarAlquiler(usuario: Usuario, vehiculo: Vehiculo): void</text><!--MD5=[4e600fe1d8f1234ca89e16eba9913bd4]
reverse link Vehiculo to Bicicleta--><path d="M74.07,726.77 C67.43,741.94 60.88,756.89 55.73,768.65 " fill="none" id="Vehiculo&lt;-Bicicleta" style="stroke: #A80036; stroke-width: 1.0;"/><polygon fill="none" points="67.7,723.87,82.13,708.36,80.52,729.49,67.7,723.87" style="stroke: #A80036; stroke-width: 1.0;"/><!--MD5=[1e7203d7d7724621e6e0baa409312b78]
reverse link Vehiculo to Monopatin--><path d="M137.45,726.77 C144.21,741.94 150.87,756.89 156.1,768.65 " fill="none" id="Vehiculo&lt;-Monopatin" style="stroke: #A80036; stroke-width: 1.0;"/><polygon fill="none" points="131,729.48,129.26,708.36,143.79,723.78,131,729.48" style="stroke: #A80036; stroke-width: 1.0;"/><!--MD5=[5698b6008e566b3cdee45472119f70d5]
link SMU to Alquiler--><path d="M454.14,401.72 C476.67,379.73 498.52,352.78 510.5,323 C523.44,290.84 523.22,277.25 510.5,245 C485.08,180.55 427.54,124.77 383.52,89.18 " fill="none" id="SMU-&gt;Alquiler" style="stroke: #A80036; stroke-width: 1.0;"/><polygon fill="#A80036" points="379.57,86.01,384.0873,94.7618,383.4702,89.1387,389.0932,88.5215,379.57,86.01" style="stroke: #A80036; stroke-width: 1.0;"/><text fill="#000000" font-family="sans-serif" font-size="13" lengthAdjust="spacingAndGlyphs" textLength="46" x="497.5" y="210.897">registra</text><text fill="#000000" font-family="sans-serif" font-size="13" lengthAdjust="spacingAndGlyphs" textLength="7" x="455.9321" y="390.3618">1</text><text fill="#000000" font-family="sans-serif" font-size="13" lengthAdjust="spacingAndGlyphs" textLength="7" x="380.78" y="107.8373">*</text><!--MD5=[a32b7b0f3141bebd2bb18e904b202850]
link SMU to Vehiculo--><path d="M294.36,521.21 C259.74,545.37 219.81,573.23 185.62,597.09 " fill="none" id="SMU-&gt;Vehiculo" style="stroke: #A80036; stroke-width: 1.0;"/><polygon fill="#A80036" points="181.47,599.98,191.1365,598.0935,185.5655,597.1117,186.5473,591.5407,181.47,599.98" style="stroke: #A80036; stroke-width: 1.0;"/><text fill="#000000" font-family="sans-serif" font-size="13" lengthAdjust="spacingAndGlyphs" textLength="46" x="251.5" y="565.897">registra</text><text fill="#000000" font-family="sans-serif" font-size="13" lengthAdjust="spacingAndGlyphs" textLength="7" x="277.7744" y="542.6271">1</text><text fill="#000000" font-family="sans-serif" font-size="13" lengthAdjust="spacingAndGlyphs" textLength="7" x="184.6611" y="588.1399">*</text><!--MD5=[fa68808c7b928951fe462125bb8e042d]
link Alquiler to Usuario--><path d="M326.5,86.02 C326.5,127.96 326.5,195.34 326.5,239.39 " fill="none" id="Alquiler-&gt;Usuario" style="stroke: #A80036; stroke-width: 1.0;"/><polygon fill="#A80036" points="326.5,244.65,330.5,235.65,326.5,239.65,322.5,235.65,326.5,244.65" style="stroke: #A80036; stroke-width: 1.0;"/><text fill="#000000" font-family="sans-serif" font-size="13" lengthAdjust="spacingAndGlyphs" textLength="46" x="327.5" y="161.897">registra</text><!--MD5=[e30c7437b869432ab9995672b9c176af]
link Alquiler to Vehiculo--><path d="M265.98,48.72 C191.99,53.17 76.5,73.29 76.5,155.5 C76.5,155.5 76.5,155.5 76.5,462.5 C76.5,507.32 84.44,557.41 92.02,594.97 " fill="none" id="Alquiler-&gt;Vehiculo" style="stroke: #A80036; stroke-width: 1.0;"/><polygon fill="#A80036" points="93.03,599.95,95.1496,590.3319,92.0302,595.051,87.3111,591.9316,93.03,599.95" style="stroke: #A80036; stroke-width: 1.0;"/><text fill="#000000" font-family="sans-serif" font-size="13" lengthAdjust="spacingAndGlyphs" textLength="46" x="77.5" y="289.397">registra</text><!--MD5=[3263dcb3138973b485ee4918b501d5fe]
link Usuario to SMU--><path d="M337.78,323.08 C344.17,344.63 352.32,372.14 359.65,396.87 " fill="none" id="Usuario-&gt;SMU" style="stroke: #A80036; stroke-width: 1.0; stroke-dasharray: 7.0,7.0;"/><polygon fill="#A80036" points="361.1,401.78,362.3932,392.0164,359.6869,396.9839,354.7194,394.2775,361.1,401.78" style="stroke: #A80036; stroke-width: 1.0;"/><text fill="#000000" font-family="sans-serif" font-size="13" lengthAdjust="spacingAndGlyphs" textLength="35" x="352.5" y="367.897">utiliza</text><!--MD5=[85b29c46de56843542880f5ae087da1d]
@startuml
abstract class Vehiculo {
  #disponible: boolean
  +estaDisponible(): boolean
  +alquilar(): void
  +devolver(): void
}

class Bicicleta extends Vehiculo {
}

class Monopatin extends Vehiculo {
}

class Usuario {

    +alquilarVehiculo(vehiculo: Vehiculo, cantidadDias: int): void
    +devolverVehiculo(): void

}

class Alquiler {
    -usuario: Usuario
    -vehiculo: Vehiculo

}

class SMU << (S,#FF7700) Singleton >> {
    +getVehiculosDisponibles(): Vehiculo[]
    +getAlquileresActivos(): Alquiler[]
    +registrarOperacionDeAlquiler(usuario: Usuario, vehiculo: Vehiculo, cantidadDias: int): void
    +terminarAlquiler(usuario: Usuario, vehiculo: Vehiculo): void

}

SMU "1" - -> "*" Alquiler : registra
SMU "1" - -> "*" Vehiculo : registra
Alquiler - - -> Usuario : registra
Alquiler - - -> Vehiculo : registra
Usuario ..> SMU : utiliza

@enduml

PlantUML version 1.2020.02(Sun Mar 01 07:22:07 GMT-03:00 2020)
(GPL source distribution)
Java Runtime: Java(TM) SE Runtime Environment
JVM: Java HotSpot(TM) 64-Bit Server VM
Java Version: 25.0.2+10-LTS-69
Operating System: Linux
Default Encoding: UTF-8
Language: es
Country: AR
--></g></svg>